<svg width="216" height="39" viewBox="0 0 216 39" fill="none" xmlns="http://www.w3.org/2000/svg">
<path d="M21 21.9237C19.6 23.3662 17.2 23.3662 15.8 21.9237C14.4 20.4811 14.4 18.0082 15.8 16.5657C17.2 15.1231 19.6 15.1231 21 16.5657C22.5 18.0082 22.5 20.4811 21 21.9237Z" fill="#FD0000"/>
<path d="M13.7 14.2988C12.3 15.7414 9.90001 15.7414 8.50001 14.2988C7.10001 12.8563 7.10001 10.3833 8.50001 8.94079C9.90001 7.49825 12.3 7.49825 13.7 8.94079C15.1 10.4864 15.1 12.8563 13.7 14.2988Z" fill="#FD0000"/>
<path d="M11.1 30.682C13.1434 30.682 14.8 28.9751 14.8 26.8696C14.8 24.764 13.1434 23.0571 11.1 23.0571C9.05654 23.0571 7.39999 24.764 7.39999 26.8696C7.39999 28.9751 9.05654 30.682 11.1 30.682Z" fill="#FD0000"/>
<path d="M3.7 38.3068C5.74345 38.3068 7.4 36.6 7.4 34.4944C7.4 32.3889 5.74345 30.682 3.7 30.682C1.65655 30.682 0 32.3889 0 34.4944C0 36.6 1.65655 38.3068 3.7 38.3068Z" fill="#FD0000"/>
<path d="M6.29999 21.9237C4.89999 23.3662 2.49999 23.3662 1.09999 21.9237C-0.300012 20.4811 -0.300012 18.0082 1.09999 16.5657C2.49999 15.1231 4.89999 15.1231 6.29999 16.5657C7.69999 18.0082 7.69999 20.4811 6.29999 21.9237Z" fill="#FD0000"/>
<path d="M6.29999 1.41897C4.89999 -0.0235691 2.49999 -0.0235691 1.09999 1.41897C-0.300012 2.86152 -0.300012 5.33444 1.09999 6.77699C2.49999 8.21953 4.89999 8.21953 6.29999 6.77699C7.69999 5.23141 7.69999 2.86152 6.29999 1.41897Z" fill="#FD0000"/>
<path d="M46.487 9.83826C45.887 9.22003 45.087 8.70483 44.287 8.39572C43.287 7.98356 42.287 7.88052 41.287 7.88052H33.187V30.6521H36.787V22.9242H41.187C42.187 22.9242 43.187 22.7181 44.187 22.409C44.987 22.0999 45.787 21.5847 46.387 20.9665C46.987 20.3482 47.387 19.6269 47.687 18.9057C47.987 18.0814 48.087 17.2571 48.087 16.4327V14.372C48.087 13.5477 47.987 12.7233 47.687 11.899C47.487 11.0747 46.987 10.3535 46.487 9.83826ZM44.587 14.475V16.1236C44.587 18.2874 43.387 19.2148 40.987 19.2148H36.887V11.2808H40.987C41.987 11.1778 42.987 11.4869 43.787 12.1051C44.287 12.8264 44.587 13.6507 44.587 14.475Z" fill="black"/>
<path d="M61.398 22.2029H69.398V18.5966H61.398V11.4869H71.598V7.88052H57.798V30.6521H71.798V27.0457H61.398V22.2029Z" fill="black"/>
<path d="M95.166 9.83826C94.566 9.22003 93.766 8.70483 92.966 8.39572C91.966 7.98356 90.966 7.88052 89.966 7.88052H81.866V30.6521H85.466V21.7908H91.466C91.766 21.7908 92.066 21.7908 92.266 21.9968C92.466 22.2029 92.466 22.512 92.466 22.8211V30.6521H96.066V22.306C96.066 21.5847 95.866 20.8634 95.366 20.2452C95.166 19.9361 94.866 19.73 94.566 19.6269C95.166 19.2148 95.666 18.5966 96.066 17.9783C96.566 17.154 96.766 16.2267 96.766 15.2993V14.2689C96.766 13.4446 96.666 12.6203 96.366 11.796C96.166 11.0747 95.666 10.3535 95.166 9.83826ZM93.266 14.475V14.9902C93.366 15.8145 93.066 16.7419 92.466 17.3601C91.666 17.9783 90.666 18.2874 89.666 18.1844H85.566V11.4869H89.666C90.666 11.3838 91.666 11.693 92.466 12.3112C92.966 12.8264 93.266 13.6507 93.266 14.475Z" fill="black"/>
<path d="M117.538 22.8211C117.638 24.0576 117.238 25.3971 116.538 26.4275C114.738 27.9731 112.138 27.9731 110.438 26.4275C109.638 25.3971 109.338 24.1607 109.438 22.8211V7.88052H105.638V22.8211C105.538 25.088 106.238 27.2518 107.738 29.0035C111.038 31.8886 115.838 31.8886 119.138 29.0035C120.638 27.3549 121.338 25.088 121.238 22.8211V7.88052H117.638L117.538 22.8211Z" fill="black"/>
<path d="M135.244 7.88052L128.544 30.6521H131.344L132.944 24.985H142.444L144.044 30.6521H146.844L140.144 7.88052H135.244ZM133.744 22.409L137.544 9.01395H137.944L141.744 22.409H133.744Z" fill="black"/>
<path d="M213.536 19.9165C212.036 18.68 210.336 17.9588 208.436 17.8557C207.536 17.7527 206.736 17.5466 205.836 17.3405C205.236 17.1344 204.536 16.9284 204.036 16.5162C203.536 16.2071 203.236 15.898 202.936 15.3828C202.636 14.8676 202.536 14.3524 202.536 13.7342V13.5281C202.536 13.0129 202.636 12.4977 202.936 11.9825C203.236 11.5703 203.536 11.1582 203.936 10.8491C204.336 10.54 204.836 10.3339 205.436 10.1278C206.036 9.92173 206.536 9.92173 207.136 9.92173C207.836 9.92173 208.436 10.0248 209.136 10.2308C209.736 10.4369 210.336 10.746 210.836 11.0552C211.336 11.4673 211.736 11.8795 212.036 12.4977C212.336 13.1159 212.436 13.7342 212.436 14.4554V15.5889H215.036V14.2494C215.036 13.322 214.836 12.4977 214.536 11.6734C214.236 10.8491 213.636 10.1278 213.036 9.50957C212.336 8.89134 211.436 8.37615 210.536 8.06703C208.536 7.34576 206.336 7.34576 204.236 7.96399C203.436 8.2731 202.636 8.68526 201.936 9.20045C201.336 9.71565 200.836 10.3339 200.436 11.1582C200.036 11.8795 199.936 12.7038 199.936 13.6311V14.0433C199.936 14.8676 200.036 15.7949 200.436 16.6192C200.736 17.3405 201.236 17.9588 201.936 18.4739C202.636 18.9891 203.436 19.4013 204.236 19.7104C205.236 20.0195 206.236 20.3286 207.236 20.4317C208.736 20.5347 210.136 21.0499 211.336 21.7712C212.236 22.3894 212.636 23.4198 212.636 24.4502V24.6563C212.636 25.7897 212.236 26.9231 211.436 27.6444C210.336 28.4687 209.036 28.8809 207.736 28.7778C206.136 28.8809 204.536 28.3657 203.336 27.2322C202.236 25.9958 201.636 24.4502 201.736 22.6985V21.8742H198.936V22.8016C198.936 23.935 199.136 25.0684 199.536 26.0988C199.936 27.1292 200.436 27.9535 201.236 28.7778C202.036 29.6021 202.936 30.1173 203.936 30.5295C205.136 30.9416 206.436 31.1477 207.636 31.1477C208.736 31.1477 209.836 31.0447 210.936 30.6325C211.836 30.3234 212.636 29.9113 213.336 29.293C213.936 28.6748 214.436 27.9535 214.836 27.2322C215.136 26.4079 215.336 25.4806 215.336 24.5532V24.1411C215.236 22.4925 214.636 20.9469 213.536 19.9165Z" fill="black"/>
<path d="M168.078 9.73522C167.478 9.11699 166.778 8.70483 165.978 8.39572C164.978 8.0866 163.978 7.88052 162.978 7.88052H155.078V30.6521H157.778V22.512H162.978C163.978 22.512 164.978 22.409 165.878 21.9968C166.678 21.6877 167.378 21.2756 167.978 20.6573C168.578 20.1421 168.978 19.4209 169.278 18.6996C169.578 17.9783 169.678 17.154 169.678 16.3297V14.1659C169.678 13.3416 169.578 12.5173 169.278 11.796C169.078 10.9717 168.578 10.2504 168.078 9.73522ZM167.078 16.0206C167.078 18.5966 165.578 19.9361 162.678 19.9361H157.778V10.3535H162.678C163.878 10.2504 165.078 10.6626 165.978 11.3838C166.678 12.2082 167.078 13.2385 167.078 14.2689V16.0206Z" fill="black"/>
<path d="M191.413 9.73522C190.813 9.11699 190.113 8.70483 189.313 8.39572C188.313 8.0866 187.313 7.88052 186.313 7.88052H178.413V30.6521H181.113V22.512H186.313C187.313 22.512 188.313 22.409 189.213 21.9968C190.013 21.6877 190.713 21.2756 191.313 20.6573C191.913 20.1421 192.313 19.4209 192.613 18.6996C192.913 17.9783 193.013 17.154 193.013 16.3297V14.1659C193.013 13.3416 192.913 12.5173 192.613 11.796C192.313 10.9717 191.913 10.2504 191.413 9.73522ZM190.413 16.0206C190.413 18.5966 188.913 19.9361 186.013 19.9361H181.113V10.3535H186.013C187.213 10.2504 188.413 10.6626 189.313 11.3838C190.013 12.2082 190.413 13.2385 190.413 14.2689V16.0206Z" fill="black"/>
</svg>
